<mxfile host="app.diagrams.net" modified="2021-04-25T06:16:38.347Z" agent="5.0 (Windows NT 6.1; Win64; x64) AppleWebKit/537.36 (KHTML, like Gecko) Chrome/89.0.4389.128 Safari/537.36" etag="frv7gQdRfrpdXg5brDWr" version="14.6.6" type="github">
  <diagram name="Page-1" id="e7e014a7-5840-1c2e-5031-d8a46d1fe8dd">
    <mxGraphModel dx="1422" dy="705" grid="1" gridSize="10" guides="1" tooltips="1" connect="1" arrows="1" fold="1" page="1" pageScale="1" pageWidth="1169" pageHeight="826" background="#ffffff" math="0" shadow="0">
      <root>
        <mxCell id="0" />
        <mxCell id="1" parent="0" />
        <mxCell id="51fqMZm762LV_sxxRGNo-41" value="Монитор" style="shape=umlActor;verticalLabelPosition=bottom;verticalAlign=top;html=1;outlineConnect=0;" parent="1" vertex="1">
          <mxGeometry x="420" y="340" width="30" height="60" as="geometry" />
        </mxCell>
        <mxCell id="51fqMZm762LV_sxxRGNo-43" value="Методист учебного отдела" style="shape=umlActor;verticalLabelPosition=bottom;verticalAlign=top;html=1;outlineConnect=0;" parent="1" vertex="1">
          <mxGeometry x="120" y="480" width="30" height="60" as="geometry" />
        </mxCell>
        <mxCell id="51fqMZm762LV_sxxRGNo-44" value="Заведующий воспитательным отделом" style="shape=umlActor;verticalLabelPosition=bottom;verticalAlign=top;html=1;outlineConnect=0;" parent="1" vertex="1">
          <mxGeometry x="120" y="330" width="30" height="60" as="geometry" />
        </mxCell>
        <mxCell id="51fqMZm762LV_sxxRGNo-45" value="Заведующий учебным отделом" style="shape=umlActor;verticalLabelPosition=bottom;verticalAlign=top;html=1;outlineConnect=0;" parent="1" vertex="1">
          <mxGeometry x="120" y="160" width="30" height="60" as="geometry" />
        </mxCell>
        <mxCell id="51fqMZm762LV_sxxRGNo-47" value="Методист воспитательного отдела" style="shape=umlActor;verticalLabelPosition=bottom;verticalAlign=top;html=1;outlineConnect=0;" parent="1" vertex="1">
          <mxGeometry x="120" y="630" width="30" height="60" as="geometry" />
        </mxCell>
        <mxCell id="51fqMZm762LV_sxxRGNo-49" value="" style="endArrow=none;html=1;" parent="1" edge="1">
          <mxGeometry width="50" height="50" relative="1" as="geometry">
            <mxPoint x="280" y="660" as="sourcePoint" />
            <mxPoint x="280" y="190" as="targetPoint" />
          </mxGeometry>
        </mxCell>
        <mxCell id="51fqMZm762LV_sxxRGNo-51" value="" style="endArrow=none;html=1;" parent="1" source="51fqMZm762LV_sxxRGNo-47" edge="1">
          <mxGeometry width="50" height="50" relative="1" as="geometry">
            <mxPoint x="560" y="410" as="sourcePoint" />
            <mxPoint x="280" y="660" as="targetPoint" />
          </mxGeometry>
        </mxCell>
        <mxCell id="51fqMZm762LV_sxxRGNo-52" value="" style="endArrow=none;html=1;" parent="1" edge="1">
          <mxGeometry width="50" height="50" relative="1" as="geometry">
            <mxPoint x="160" y="190" as="sourcePoint" />
            <mxPoint x="280" y="190" as="targetPoint" />
          </mxGeometry>
        </mxCell>
        <mxCell id="51fqMZm762LV_sxxRGNo-53" value="" style="endArrow=none;html=1;" parent="1" edge="1">
          <mxGeometry width="50" height="50" relative="1" as="geometry">
            <mxPoint x="160" y="370" as="sourcePoint" />
            <mxPoint x="280" y="370" as="targetPoint" />
          </mxGeometry>
        </mxCell>
        <mxCell id="51fqMZm762LV_sxxRGNo-54" value="" style="endArrow=none;html=1;" parent="1" edge="1">
          <mxGeometry width="50" height="50" relative="1" as="geometry">
            <mxPoint x="160" y="520" as="sourcePoint" />
            <mxPoint x="280" y="520" as="targetPoint" />
          </mxGeometry>
        </mxCell>
        <mxCell id="51fqMZm762LV_sxxRGNo-55" value="" style="endArrow=block;endSize=16;endFill=0;html=1;" parent="1" target="51fqMZm762LV_sxxRGNo-41" edge="1">
          <mxGeometry y="40" width="160" relative="1" as="geometry">
            <mxPoint x="280" y="370" as="sourcePoint" />
            <mxPoint x="400" y="370" as="targetPoint" />
            <mxPoint as="offset" />
          </mxGeometry>
        </mxCell>
        <mxCell id="51fqMZm762LV_sxxRGNo-56" value="Сформировать экспертное заключение" style="ellipse;whiteSpace=wrap;html=1;" parent="1" vertex="1">
          <mxGeometry x="360" y="540" width="140" height="70" as="geometry" />
        </mxCell>
        <mxCell id="51fqMZm762LV_sxxRGNo-57" value="Сформировать аналитический отчет" style="ellipse;whiteSpace=wrap;html=1;" parent="1" vertex="1">
          <mxGeometry x="515" y="220" width="140" height="70" as="geometry" />
        </mxCell>
        <mxCell id="51fqMZm762LV_sxxRGNo-58" value="Подтвердить позицию" style="ellipse;whiteSpace=wrap;html=1;" parent="1" vertex="1">
          <mxGeometry x="860" y="610" width="140" height="70" as="geometry" />
        </mxCell>
        <mxCell id="51fqMZm762LV_sxxRGNo-59" value="Скорректировать позиции портфолио" style="ellipse;whiteSpace=wrap;html=1;" parent="1" vertex="1">
          <mxGeometry x="585" y="570" width="140" height="70" as="geometry" />
        </mxCell>
        <mxCell id="51fqMZm762LV_sxxRGNo-60" value="&amp;lt;&amp;lt;Extend&amp;gt;&amp;gt;" style="endArrow=open;endSize=12;dashed=1;html=1;entryX=1.007;entryY=0.6;entryDx=0;entryDy=0;entryPerimeter=0;" parent="1" source="51fqMZm762LV_sxxRGNo-58" target="51fqMZm762LV_sxxRGNo-59" edge="1">
          <mxGeometry x="-0.1189" y="-16" width="160" relative="1" as="geometry">
            <mxPoint x="500" y="390" as="sourcePoint" />
            <mxPoint x="820" y="380" as="targetPoint" />
            <mxPoint as="offset" />
          </mxGeometry>
        </mxCell>
        <mxCell id="51fqMZm762LV_sxxRGNo-61" value="" style="endArrow=open;endFill=1;endSize=12;html=1;entryX=0;entryY=0.5;entryDx=0;entryDy=0;" parent="1" target="51fqMZm762LV_sxxRGNo-56" edge="1">
          <mxGeometry width="160" relative="1" as="geometry">
            <mxPoint x="280" y="519.9993150684932" as="sourcePoint" />
            <mxPoint x="790" y="858.15" as="targetPoint" />
          </mxGeometry>
        </mxCell>
        <mxCell id="51fqMZm762LV_sxxRGNo-62" value="" style="endArrow=open;endFill=1;endSize=12;html=1;entryX=0;entryY=0.5;entryDx=0;entryDy=0;" parent="1" source="51fqMZm762LV_sxxRGNo-41" target="51fqMZm762LV_sxxRGNo-57" edge="1">
          <mxGeometry width="160" relative="1" as="geometry">
            <mxPoint x="450" y="360" as="sourcePoint" />
            <mxPoint x="490.5025253169417" y="169.74873734152914" as="targetPoint" />
          </mxGeometry>
        </mxCell>
        <mxCell id="51fqMZm762LV_sxxRGNo-63" value="" style="endArrow=open;endFill=1;endSize=12;html=1;entryX=0;entryY=0.5;entryDx=0;entryDy=0;" parent="1" source="51fqMZm762LV_sxxRGNo-41" target="51fqMZm762LV_sxxRGNo-59" edge="1">
          <mxGeometry width="160" relative="1" as="geometry">
            <mxPoint x="461.49259244509585" y="360" as="sourcePoint" />
            <mxPoint x="500.5025253169417" y="179.74873734152914" as="targetPoint" />
          </mxGeometry>
        </mxCell>
        <mxCell id="51fqMZm762LV_sxxRGNo-64" value="Получить список нарушений регламента заполнения портфолио" style="ellipse;whiteSpace=wrap;html=1;" parent="1" vertex="1">
          <mxGeometry x="780" y="110" width="190" height="90" as="geometry" />
        </mxCell>
        <mxCell id="51fqMZm762LV_sxxRGNo-65" value="Получить рекомендации по планированию развития персонала" style="ellipse;whiteSpace=wrap;html=1;" parent="1" vertex="1">
          <mxGeometry x="900" y="250" width="180" height="90" as="geometry" />
        </mxCell>
        <mxCell id="51fqMZm762LV_sxxRGNo-66" value="Актуализировать список доступных мероприятий на текущий учебный год" style="ellipse;whiteSpace=wrap;html=1;" parent="1" vertex="1">
          <mxGeometry x="620" y="368" width="180" height="90" as="geometry" />
        </mxCell>
        <mxCell id="51fqMZm762LV_sxxRGNo-67" value="&amp;lt;&amp;lt;Extend&amp;gt;&amp;gt;" style="endArrow=open;endSize=12;dashed=1;html=1;exitX=0;exitY=0.5;exitDx=0;exitDy=0;entryX=0.636;entryY=0.029;entryDx=0;entryDy=0;entryPerimeter=0;" parent="1" source="51fqMZm762LV_sxxRGNo-64" target="51fqMZm762LV_sxxRGNo-57" edge="1">
          <mxGeometry x="-0.1948" y="-16" width="160" relative="1" as="geometry">
            <mxPoint x="490" y="380" as="sourcePoint" />
            <mxPoint x="660" y="390" as="targetPoint" />
            <mxPoint as="offset" />
          </mxGeometry>
        </mxCell>
        <mxCell id="51fqMZm762LV_sxxRGNo-68" value="&amp;lt;&amp;lt;Extend&amp;gt;&amp;gt;" style="endArrow=open;endSize=12;dashed=1;html=1;exitX=0;exitY=0.5;exitDx=0;exitDy=0;entryX=1;entryY=0.5;entryDx=0;entryDy=0;" parent="1" source="51fqMZm762LV_sxxRGNo-65" target="51fqMZm762LV_sxxRGNo-57" edge="1">
          <mxGeometry x="-0.1948" y="-16" width="160" relative="1" as="geometry">
            <mxPoint x="790" y="165" as="sourcePoint" />
            <mxPoint x="614.04" y="232.02999999999997" as="targetPoint" />
            <mxPoint as="offset" />
          </mxGeometry>
        </mxCell>
        <mxCell id="51fqMZm762LV_sxxRGNo-70" value="" style="endArrow=open;endFill=1;endSize=12;html=1;entryX=0;entryY=0.5;entryDx=0;entryDy=0;" parent="1" source="51fqMZm762LV_sxxRGNo-41" target="51fqMZm762LV_sxxRGNo-66" edge="1">
          <mxGeometry width="160" relative="1" as="geometry">
            <mxPoint x="460" y="358.4375" as="sourcePoint" />
            <mxPoint x="525" y="265" as="targetPoint" />
          </mxGeometry>
        </mxCell>
        <mxCell id="fIFGdESY5y7hR5qFMwQY-1" value="&lt;font style=&quot;font-size: 18px&quot;&gt;Диаграмма прецедентов для актора &quot;Монитор&quot;&lt;/font&gt;" style="text;html=1;strokeColor=none;fillColor=none;align=center;verticalAlign=middle;whiteSpace=wrap;rounded=0;" parent="1" vertex="1">
          <mxGeometry x="410" y="60" width="380" height="20" as="geometry" />
        </mxCell>
        <mxCell id="fIFGdESY5y7hR5qFMwQY-5" value="Авторизоваться" style="ellipse;whiteSpace=wrap;html=1;" parent="1" vertex="1">
          <mxGeometry x="940" y="430" width="140" height="70" as="geometry" />
        </mxCell>
        <mxCell id="fIFGdESY5y7hR5qFMwQY-6" value="&amp;lt;&amp;lt;Include&amp;gt;&amp;gt;" style="endArrow=open;endSize=12;dashed=1;html=1;exitX=1;exitY=0.578;exitDx=0;exitDy=0;exitPerimeter=0;entryX=0;entryY=0.5;entryDx=0;entryDy=0;" parent="1" source="51fqMZm762LV_sxxRGNo-66" target="fIFGdESY5y7hR5qFMwQY-5" edge="1">
          <mxGeometry width="160" relative="1" as="geometry">
            <mxPoint x="940" y="563" as="sourcePoint" />
            <mxPoint x="870" y="445" as="targetPoint" />
          </mxGeometry>
        </mxCell>
        <mxCell id="fIFGdESY5y7hR5qFMwQY-7" value="&amp;lt;&amp;lt;Include&amp;gt;&amp;gt;" style="endArrow=open;endSize=12;dashed=1;html=1;exitX=1;exitY=0.578;exitDx=0;exitDy=0;exitPerimeter=0;" parent="1" target="fIFGdESY5y7hR5qFMwQY-5" edge="1">
          <mxGeometry width="160" relative="1" as="geometry">
            <mxPoint x="640" y="280" as="sourcePoint" />
            <mxPoint x="780" y="324.98" as="targetPoint" />
          </mxGeometry>
        </mxCell>
        <mxCell id="fIFGdESY5y7hR5qFMwQY-8" value="&amp;lt;&amp;lt;Include&amp;gt;&amp;gt;" style="endArrow=open;endSize=12;dashed=1;html=1;exitX=0.921;exitY=0.2;exitDx=0;exitDy=0;exitPerimeter=0;entryX=0;entryY=0.5;entryDx=0;entryDy=0;" parent="1" source="51fqMZm762LV_sxxRGNo-59" edge="1">
          <mxGeometry width="160" relative="1" as="geometry">
            <mxPoint x="820" y="440.02" as="sourcePoint" />
            <mxPoint x="960" y="485" as="targetPoint" />
          </mxGeometry>
        </mxCell>
        <mxCell id="fIFGdESY5y7hR5qFMwQY-9" value="&amp;lt;&amp;lt;Include&amp;gt;&amp;gt;" style="endArrow=open;endSize=12;dashed=1;html=1;exitX=1;exitY=0.286;exitDx=0;exitDy=0;exitPerimeter=0;entryX=0.029;entryY=0.657;entryDx=0;entryDy=0;entryPerimeter=0;" parent="1" source="51fqMZm762LV_sxxRGNo-56" target="fIFGdESY5y7hR5qFMwQY-5" edge="1">
          <mxGeometry width="160" relative="1" as="geometry">
            <mxPoint x="830" y="450.02" as="sourcePoint" />
            <mxPoint x="970" y="495" as="targetPoint" />
          </mxGeometry>
        </mxCell>
        <mxCell id="karVFmUnPQfpNJJ2JB7p-1" value="Заполнение справочника" style="ellipse;whiteSpace=wrap;html=1;" vertex="1" parent="1">
          <mxGeometry x="430" y="120" width="140" height="70" as="geometry" />
        </mxCell>
        <mxCell id="karVFmUnPQfpNJJ2JB7p-2" value="" style="endArrow=open;endFill=1;endSize=12;html=1;entryX=0;entryY=0.5;entryDx=0;entryDy=0;exitX=0.5;exitY=0;exitDx=0;exitDy=0;exitPerimeter=0;" edge="1" parent="1" source="51fqMZm762LV_sxxRGNo-41" target="karVFmUnPQfpNJJ2JB7p-1">
          <mxGeometry width="160" relative="1" as="geometry">
            <mxPoint x="500" y="360" as="sourcePoint" />
            <mxPoint x="660" y="360" as="targetPoint" />
          </mxGeometry>
        </mxCell>
      </root>
    </mxGraphModel>
  </diagram>
</mxfile>
